<svg xmlns="http://www.w3.org/2000/svg" width="400" height="600" viewBox="0 0 400 600">
  <rect width="100%" height="100%" fill="#2a2a2a"/>
  <rect x="20" y="20" width="360" height="560" fill="#1a1a1a" stroke="#444" stroke-width="2"/>
  
  <!-- アクションシーン風 -->
  <polygon points="50,100 150,80 250,120 350,90 380,200 300,300 100,280 30,180" fill="#444" stroke="#666" stroke-width="2"/>
  
  <!-- 動きのあるキャラクター -->
  <ellipse cx="200" cy="250" rx="50" ry="30" fill="#6a6a6a" transform="rotate(15 200 250)"/>
  <circle cx="190" cy="240" r="6" fill="white"/>
  <circle cx="210" cy="240" r="6" fill="white"/>
  <ellipse cx="200" cy="260" rx="12" ry="6" fill="white"/>
  
  <!-- エフェクト線 -->
  <line x1="100" y1="200" x2="150" y2="180" stroke="#888" stroke-width="3"/>
  <line x1="250" y1="180" x2="300" y2="200" stroke="#888" stroke-width="3"/>
  <line x1="120" y1="300" x2="170" y2="280" stroke="#888" stroke-width="3"/>
  <line x1="230" y1="280" x2="280" y2="300" stroke="#888" stroke-width="3"/>
  
  <!-- 吹き出し -->
  <ellipse cx="150" cy="150" rx="60" ry="30" fill="white" stroke="#333" stroke-width="2"/>
  <text x="150" y="155" text-anchor="middle" fill="black" font-size="12">スワイプ！</text>
  
  <ellipse cx="280" cy="350" rx="70" ry="25" fill="white" stroke="#333" stroke-width="2"/>
  <text x="280" y="355" text-anchor="middle" fill="black" font-size="11">ボタンも使える</text>
  
  <text x="200" y="480" text-anchor="middle" fill="white" font-size="16">アクション満載</text>
  <text x="200" y="550" text-anchor="middle" fill="#666" font-size="12">Page 3 / 5</text>
</svg>