<svg xmlns="http://www.w3.org/2000/svg" width="400" height="600" viewBox="0 0 400 600">
  <rect width="100%" height="100%" fill="#2a2a2a"/>
  <rect x="20" y="20" width="360" height="560" fill="#1a1a1a" stroke="#444" stroke-width="2"/>
  
  <!-- 4分割コマ -->
  <rect x="40" y="50" width="150" height="120" fill="#333" stroke="#666" stroke-width="1"/>
  <rect x="210" y="50" width="150" height="120" fill="#333" stroke="#666" stroke-width="1"/>
  <rect x="40" y="190" width="150" height="120" fill="#333" stroke="#666" stroke-width="1"/>
  <rect x="210" y="190" width="150" height="120" fill="#333" stroke="#666" stroke-width="1"/>
  
  <!-- 下部の大きなコマ -->
  <rect x="40" y="330" width="320" height="180" fill="#333" stroke="#666" stroke-width="1"/>
  
  <!-- 各コマの内容 -->
  <!-- コマ1: PC表示 -->
  <rect x="60" y="80" width="80" height="50" fill="#222" stroke="#555" stroke-width="1"/>
  <text x="100" y="100" text-anchor="middle" fill="#ccc" font-size="8">PC対応</text>
  <text x="100" y="110" text-anchor="middle" fill="#ccc" font-size="8">✓</text>
  
  <!-- コマ2: モバイル表示 -->
  <rect x="240" y="80" width="40" height="60" fill="#222" stroke="#555" stroke-width="1"/>
  <text x="260" y="150" text-anchor="middle" fill="#ccc" font-size="8">スマホ対応</text>
  
  <!-- コマ3: タブレット表示 -->
  <rect x="60" y="220" width="70" height="50" fill="#222" stroke="#555" stroke-width="1"/>
  <text x="95" y="290" text-anchor="middle" fill="#ccc" font-size="8">タブレット対応</text>
  
  <!-- コマ4: 機能説明 -->
  <text x="285" y="240" text-anchor="middle" fill="white" font-size="10">レスポンシブ</text>
  <text x="285" y="255" text-anchor="middle" fill="white" font-size="10">デザイン</text>
  
  <!-- 大きなコマ: 完成図 -->
  <circle cx="200" cy="420" r="60" fill="#6a6a6a"/>
  <circle cx="180" cy="400" r="8" fill="white"/>
  <circle cx="220" cy="400" r="8" fill="white"/>
  <path d="M 175 420 Q 200 440 225 420" stroke="white" stroke-width="3" fill="none"/>
  
  <text x="200" y="500" text-anchor="middle" fill="white" font-size="14">すべてのデバイスで</text>
  
  <text x="200" y="550" text-anchor="middle" fill="#666" font-size="12">Page 4 / 5</text>
</svg>